<?xml version="1.0" encoding="UTF-8"?>
<svg width="64px" height="65px" viewBox="0 0 64 65" version="1.1" xmlns="http://www.w3.org/2000/svg" xmlns:xlink="http://www.w3.org/1999/xlink">
    <!-- Generator: Sketch 52.4 (67378) - http://www.bohemiancoding.com/sketch -->
    <title>dribbble</title>
    <desc>Created with Sketch.</desc>
    <g id="Landing" stroke="none" stroke-width="1" fill="none" fill-rule="evenodd">
        <g id="Desktop-HD" transform="translate(-1007.000000, -2853.000000)" fill="#000000">
            <g id="Contact" transform="translate(-15.000000, 2610.000000)">
                <g id="Group" transform="translate(144.000000, 238.000000)">
                    <path d="M940.850831,31.114297 C940.437338,29.0734091 939.811511,27.0661008 939.003152,25.1483378 C938.213418,23.2678853 937.226251,21.4545919 936.082627,19.7606923 C934.950179,18.0817169 933.650099,16.499749 932.219638,15.0670233 C930.785452,13.6305666 929.20971,12.3284279 927.529663,11.1941868 C925.838441,10.0450214 924.028014,9.06375358 922.150534,8.26530751 C920.235802,7.45939932 918.231667,6.82885079 916.19773,6.41843458 C914.111642,5.9893631 911.96595,5.76923077 909.820259,5.76923077 C907.670842,5.76923077 905.525151,5.9893631 903.439062,6.41843458 C901.405125,6.82885079 899.40099,7.45939932 897.486258,8.26530751 C895.608778,9.06375358 893.798351,10.0450214 892.103404,11.1941868 C890.427083,12.3284279 888.851341,13.6305666 887.417155,15.0670233 C885.982968,16.499749 884.686613,18.0817169 883.554165,19.7606923 C882.406816,21.4545919 881.423374,23.2678853 880.629915,25.1483378 C879.821556,27.0661008 879.199454,29.0734091 878.782237,31.114297 C878.357569,33.1962264 878.141509,35.349046 878.141509,37.4981345 C878.141509,39.650954 878.357569,41.8037736 878.782237,43.8931652 C879.199454,45.9265909 879.821556,47.9376303 880.629915,49.8516622 C881.423374,51.7321147 882.406816,53.5491391 883.554165,55.2467698 C884.686613,56.9257452 885.982968,58.500251 887.417155,59.9367077 C888.851341,61.3731644 890.427083,62.6715721 892.103404,63.8058132 C893.798351,64.9549786 895.608778,65.9399775 897.486258,66.7346925 C899.40099,67.5443317 901.405125,68.1636871 903.439062,68.5815654 C905.525151,69.014368 907.670842,69.2307692 909.820259,69.2307692 C911.96595,69.2307692 914.111642,69.014368 916.19773,68.5815654 C918.231667,68.1636871 920.235802,67.5443317 922.150534,66.7346925 C924.028014,65.9399775 925.838441,64.9549786 927.529663,63.8058132 C929.20971,62.6715721 930.785452,61.3731644 932.219638,59.9367077 C933.650099,58.500251 934.950179,56.9257452 936.082627,55.2467698 C937.226251,53.5491391 938.213418,51.7321147 939.003152,49.8516622 C939.811511,47.9376303 940.437338,45.9265909 940.850831,43.8931652 C941.279224,41.8037736 941.495283,39.650954 941.495283,37.4981345 C941.495283,35.349046 941.279224,33.1962264 940.850831,31.114297 L940.850831,31.114297 Z M936.864911,37.2294984 C936.473769,37.1436841 927.317329,35.1699553 918.023058,36.341507 C917.82935,35.878856 917.635642,35.4124739 917.438208,34.9460919 C916.871984,33.6178358 916.268508,32.304504 915.638957,31.0135584 C926.322712,26.6444914 930.658796,20.3613924 930.710949,20.2867713 C934.50316,24.9058191 936.801583,30.8008882 936.864911,37.2294984 L936.864911,37.2294984 Z M927.68612,17.163877 C927.619067,17.2683466 923.767253,23.1447605 913.552868,26.9765554 C908.929946,18.4660157 903.848829,11.7053415 903.442787,11.1680694 C905.487899,10.6718389 907.622415,10.4032028 909.820259,10.4032028 C916.6671,10.4032028 922.917917,12.9627075 927.68612,17.163877 L927.68612,17.163877 Z M903.338483,11.1904557 C903.338483,11.1941868 903.334758,11.1941868 903.334758,11.1941868 C903.334758,11.1941868 903.301231,11.2016489 903.252804,11.2128421 C903.27888,11.20538 903.308681,11.2016489 903.338483,11.1904557 L903.338483,11.1904557 Z M898.275992,12.992556 C898.633607,13.4775933 903.640221,20.268116 908.322745,28.607027 C895.333117,32.0657163 884.057061,31.9276673 883.341831,31.9164741 C885.100106,23.5215972 890.728821,16.563177 898.275992,12.992556 L898.275992,12.992556 Z M882.764431,37.4981345 C882.764431,37.2108431 882.779332,36.9272828 882.786782,36.6437226 C883.263603,36.6549157 896.633197,36.9571313 910.561565,32.7820792 C911.336398,34.3006191 912.077705,35.8452765 912.755684,37.3862028 C912.398069,37.4869413 912.044179,37.5951419 911.690288,37.7108047 C897.091392,42.4380532 889.685776,55.5937581 889.685776,55.5937581 C889.685776,55.5937581 889.696952,55.6049512 889.696952,55.6086823 C885.386943,50.8068127 882.764431,44.4602857 882.764431,37.4981345 L882.764431,37.4981345 Z M909.820259,64.5967972 C903.27143,64.5967972 897.266474,62.2648869 892.58395,58.3883193 C892.941565,58.6756106 893.19115,58.8621635 893.19115,58.8621635 C893.19115,58.8621635 898.376571,47.5346762 914.42083,41.9343605 C914.480432,41.9119742 914.540035,41.8933189 914.603363,41.8746636 C918.410475,51.7843495 919.978767,60.0822189 920.381084,62.4514397 C917.13647,63.8319306 913.564043,64.5967972 909.820259,64.5967972 L909.820259,64.5967972 Z M924.936953,59.9740183 C924.661291,58.3398156 923.219655,50.3852033 919.669578,40.6210287 C928.405075,39.2218825 935.970873,41.6209518 936.529647,41.8037736 C935.32642,49.3517007 931.008961,55.8661252 924.936953,59.9740183 L924.936953,59.9740183 Z" id="dribbble"></path>
                </g>
            </g>
        </g>
    </g>
</svg>