<?xml version="1.0" encoding="UTF-8"?>
<svg width="59px" height="59px" viewBox="0 0 59 59" version="1.1" xmlns="http://www.w3.org/2000/svg" xmlns:xlink="http://www.w3.org/1999/xlink">
    <!-- Generator: Sketch 52.4 (67378) - http://www.bohemiancoding.com/sketch -->
    <title>linkedin</title>
    <desc>Created with Sketch.</desc>
    <g id="Landing" stroke="none" stroke-width="1" fill="none" fill-rule="evenodd">
        <g id="Desktop-HD" transform="translate(-716.000000, -2854.000000)" fill="#000000">
            <g id="Contact" transform="translate(-15.000000, 2610.000000)">
                <g id="Group" transform="translate(144.000000, 238.000000)">
                    <path d="M588.863104,25.1532108 L600.088717,25.1532108 L600.088717,64.3424599 L588.863104,64.3424599 L588.863104,25.1532108 Z M594.189768,20.2513224 L594.108496,20.2513224 C590.044926,20.2513224 587.410377,17.2555188 587.410377,13.4618192 C587.410377,9.59054641 590.122811,6.65384615 594.267653,6.65384615 C598.409108,6.65384615 600.955612,9.58315849 601.036884,13.4507373 C601.036884,17.2444369 598.409108,20.2513224 594.189768,20.2513224 L594.189768,20.2513224 Z M645.004717,64.3461538 L632.275582,64.3461538 L632.275582,44.0626053 C632.275582,38.754381 630.284433,35.1342977 625.905935,35.1342977 C622.556876,35.1342977 620.694406,37.576007 619.827511,39.9364491 C619.502426,40.7786725 619.55322,41.9570466 619.55322,43.1391146 L619.55322,64.3461538 L606.942606,64.3461538 C606.942606,64.3461538 607.105149,28.4186737 606.942606,25.1532108 L619.55322,25.1532108 L619.55322,31.3036585 C620.298208,28.6144537 624.327916,24.7764266 630.758516,24.7764266 C638.736659,24.7764266 645.004717,30.4171075 645.004717,42.5517746 L645.004717,64.3461538 L645.004717,64.3461538 Z" id="linkedin"></path>
                </g>
            </g>
        </g>
    </g>
</svg>