<?xml version="1.0" encoding="UTF-8"?>
<svg width="70px" height="71px" viewBox="0 0 70 71" version="1.1" xmlns="http://www.w3.org/2000/svg" xmlns:xlink="http://www.w3.org/1999/xlink">
    <!-- Generator: Sketch 52.4 (67378) - http://www.bohemiancoding.com/sketch -->
    <title>git</title>
    <desc>Created with Sketch.</desc>
    <g id="Landing" stroke="none" stroke-width="1" fill="none" fill-rule="evenodd">
        <g id="Desktop-HD" transform="translate(-1149.000000, -2848.000000)" fill="#000000">
            <g id="Contact" transform="translate(-15.000000, 2610.000000)">
                <g id="Group" transform="translate(144.000000, 238.000000)">
                    <path d="M1020.88679,36.3781745 C1020.88679,52.05722 1030.78738,65.3613129 1044.51923,70.054568 C1046.24817,70.3813964 1046.87823,69.285432 1046.87823,68.3441663 C1046.87823,67.5009492 1046.84853,65.2698009 1046.83156,62.3087361 C1037.21948,64.45273 1035.19142,57.5501152 1035.19142,57.5501152 C1033.61946,53.4495088 1031.3538,52.3579021 1031.3538,52.3579021 C1028.21624,50.155079 1031.59139,50.200835 1031.59139,50.200835 C1035.05989,50.4514034 1036.8843,53.8591337 1036.8843,53.8591337 C1039.96882,59.2823055 1044.97321,57.7157083 1046.94187,56.8071254 C1047.25584,54.5127904 1048.14895,52.9505509 1049.1354,52.0615778 C1041.46229,51.1660681 1033.39459,48.1222067 1033.39459,34.5217895 C1033.39459,30.6456052 1034.74168,27.477549 1036.95218,24.9958324 C1036.59791,24.0981439 1035.41204,20.4899589 1037.29161,15.6049644 C1037.29161,15.6049644 1040.19369,14.6484468 1046.79337,19.2414745 C1049.5512,18.4549076 1052.50631,18.0605348 1055.44446,18.0474616 C1058.38048,18.0605348 1061.33559,18.4549076 1064.09766,19.2414745 C1070.69311,14.6484468 1073.59094,15.6049644 1073.59094,15.6049644 C1075.47475,20.4899589 1074.28889,24.0981439 1073.93461,24.9958324 C1076.14936,27.477549 1077.48584,30.6456052 1077.48584,34.5217895 C1077.48584,48.1548895 1069.40754,51.1551738 1061.70896,52.0354315 C1062.94998,53.1313959 1064.05311,55.2971785 1064.05311,58.6068602 C1064.05311,63.3524079 1064.01281,67.1806574 1064.01281,68.3441663 C1064.01281,69.2941474 1064.63438,70.3966484 1066.38878,70.0502103 C1080.1079,65.3482397 1090,52.0550412 1090,36.3781745 C1090,16.7750099 1074.52648,0.884615385 1055.44021,0.884615385 C1036.36031,0.884615385 1020.88679,16.7750099 1020.88679,36.3781745 Z" id="git"></path>
                </g>
            </g>
        </g>
    </g>
</svg>