<?xml version="1.0" encoding="UTF-8"?>
<svg width="57px" height="57px" viewBox="0 0 57 57" version="1.1" xmlns="http://www.w3.org/2000/svg" xmlns:xlink="http://www.w3.org/1999/xlink">
    <!-- Generator: Sketch 52.4 (67378) - http://www.bohemiancoding.com/sketch -->
    <title>insta</title>
    <desc>Created with Sketch.</desc>
    <g id="Landing" stroke="none" stroke-width="1" fill="none" fill-rule="evenodd">
        <g id="Desktop-HD" transform="translate(-129.000000, -2856.000000)" fill="#000000" fill-rule="nonzero">
            <g id="Contact" transform="translate(-15.000000, 2610.000000)">
                <g id="Group" transform="translate(144.000000, 238.000000)">
                    <path d="M28.4998303,13.1352391 L28.5000566,13.135126 C20.8900257,13.135126 19.9887188,13.1642006 16.9834195,13.3013153 C14.2047197,13.4280219 12.6956782,13.8923113 11.691423,14.282613 C10.4535456,14.7394979 9.33379765,15.4680009 8.41449851,16.4145653 C7.46784276,17.3338789 6.7392657,18.4536783 6.28233683,19.6916289 C5.89203823,20.6960053 5.42786571,22.2049456 5.30104695,24.9836675 C5.16393335,27.9892168 5.13485893,28.8903047 5.13485893,36.500396 C5.13485893,44.1104872 5.16393335,45.0119145 5.30104695,48.0171244 C5.42775258,50.7958463 5.89203823,52.3048998 6.28233683,53.309163 C6.73921816,54.5470501 7.4677154,55.666807 8.41427225,56.5861135 C9.33356649,57.5326838 10.4533159,58.2611878 11.6911967,58.7180658 C12.6955651,59.1082544 14.2044934,59.5725437 16.9831932,59.6993635 C19.9882662,59.8364782 20.8892338,59.8655528 28.4998303,59.8655528 C36.1104268,59.8655528 37.0117338,59.8364782 40.0164674,59.6993635 C42.7951672,59.5726569 44.3042086,59.1083675 45.3084639,58.7180658 C47.7939781,57.7592677 49.7585333,55.7946969 50.7173238,53.309163 C51.1075093,52.3047866 51.5717949,50.7958463 51.6986137,48.0171244 C51.8357273,45.0115751 51.8648017,44.1104872 51.8648017,36.500396 C51.8648017,28.8903047 51.8357273,27.9889906 51.6986137,24.9836675 C51.571908,22.2049456 51.1076224,20.6958922 50.7173238,19.6916289 C50.2604459,18.45374 49.5319482,17.3339824 48.5853884,16.4146784 C47.6660917,15.4681111 46.546343,14.7396076 45.3084639,14.2827261 C44.3040955,13.8924244 42.7951672,13.4282482 40.0164674,13.3014284 C37.0109419,13.1643137 36.1096349,13.1352391 28.4998303,13.1352391 Z M28.5000566,8 L28.4998303,8 C36.2399607,8 37.2108426,8.03280797 40.250194,8.17207214 C43.2837758,8.30997874 45.3554129,8.79169024 47.1683216,9.495704 C49.0701546,10.2114804 50.7929424,11.3335425 52.2165229,12.7836282 C53.6663137,14.2071863 54.7881299,15.9298637 55.5037422,17.8315302 C56.208316,19.6443402 56.6900237,21.7159937 56.8284949,24.7495996 C56.9671923,27.7889751 57,28.7599779 57,36.5000566 C57,44.2401353 56.9671923,45.2106855 56.8284949,48.2505136 C56.6900237,51.2840063 56.208316,53.3556598 55.5037422,55.1685829 C54.0231494,58.9967913 50.996839,62.0231258 47.168661,63.5037303 C45.3558654,64.2083098 43.2842283,64.6900213 40.2506465,64.8284935 C37.2112951,64.967192 36.2403001,65 28.5002828,65 C20.7602656,65 19.789723,64.967192 16.7499191,64.8284935 C13.7164505,64.6900213 11.6448134,64.2083098 9.83190465,63.5037303 C7.93025328,62.7881123 6.20758959,61.6662872 4.78404271,60.216485 C3.33426044,58.7929198 2.21244554,57.0702445 1.49682343,55.1685829 C0.792249601,53.355773 0.310541933,51.2841194 0.172070776,48.2505136 C0.0328077087,45.211138 0,44.2402484 0,36.5000566 C0,28.7598647 0.0328077087,27.7889751 0.172070776,24.7495996 C0.309976282,21.7159937 0.79168395,19.6443402 1.49569213,17.8314171 C2.21157605,15.9296714 3.33370463,14.2069886 4.78381645,12.783515 C6.20736796,11.3337184 7.93003032,10.2118942 9.83167839,9.49626966 C11.644474,8.79169024 13.7161111,8.30997874 16.7496929,8.17150649 C19.7890442,8.03280797 20.7599262,8 28.5000566,8 Z M28.4998303,21.864874 C36.5825543,21.864874 43.1348966,28.4172684 43.1348966,36.5000566 C43.1348966,44.5828447 36.5825543,51.1352391 28.4998303,51.1352391 C20.4171064,51.1352391 13.864764,44.5828447 13.864764,36.5000566 C13.864764,28.4172684 20.4171064,21.864874 28.4998303,21.864874 Z M28.4998303,46 C33.7464808,46 37.999749,41.7467487 37.9998114,36.5000566 C37.9998114,31.2533974 33.7465986,27.000134 28.4999811,27.0001131 C23.2533636,27.0000923 19.0001171,31.253322 19.0000754,36.4999811 C19.0000338,41.7466403 23.2532128,45.9999375 28.4998303,46 Z M43.7131042,24.7066098 C41.8243341,24.7066098 40.2931834,23.175447 40.2931834,21.2866619 C40.2931834,19.3978768 41.8243341,17.8667139 43.7131042,17.8667139 C45.6018743,17.8667139 47.133025,19.3978768 47.133025,21.2866619 C47.133025,23.175447 45.6018743,24.7066098 43.7131042,24.7066098 Z" id="insta"></path>
                </g>
            </g>
        </g>
    </g>
</svg>