<?xml version="1.0" encoding="UTF-8"?>
<svg width="71px" height="71px" viewBox="0 0 71 71" version="1.1" xmlns="http://www.w3.org/2000/svg" xmlns:xlink="http://www.w3.org/1999/xlink">
    <!-- Generator: Sketch 52.4 (67378) - http://www.bohemiancoding.com/sketch -->
    <title>skype</title>
    <desc>Created with Sketch.</desc>
    <g id="Landing" stroke="none" stroke-width="1" fill="none" fill-rule="evenodd">
        <g id="Desktop-HD" transform="translate(-536.000000, -2848.000000)" fill="#000000">
            <g id="Contact" transform="translate(-15.000000, 2610.000000)">
                <g id="Group" transform="translate(144.000000, 238.000000)">
                    <path d="M475.045933,42.848495 C475.545752,40.5929766 475.805821,38.261204 475.805821,35.861204 C475.805821,17.8852843 461.050996,3.30869565 442.8462,3.30869565 C440.924131,3.30869565 439.042698,3.47324415 437.205964,3.78227425 C434.263939,1.95217391 430.777396,0.884615385 427.038911,0.884615385 C416.477691,0.884615385 407.919811,9.3367893 407.919811,19.7675585 C407.919811,23.2511706 408.882878,26.5140468 410.548941,29.3153846 C410.110076,31.4304348 409.882516,33.6217391 409.882516,35.861204 C409.882516,53.8451505 424.63734,68.4177258 442.8462,68.4177258 C444.90643,68.4177258 446.926025,68.2331104 448.880602,67.8759197 C451.57475,69.3046823 454.650872,70.1153846 457.917983,70.1153846 C468.475139,70.1153846 477.033019,61.6632107 477.033019,51.2324415 C477.033019,48.222408 476.31783,45.3769231 475.045933,42.848495 L475.045933,42.848495 Z M459.490585,51.3287625 C457.97081,53.4598662 455.715528,55.1494983 452.793821,56.3494983 C449.904622,57.5334448 446.438396,58.1354515 442.496733,58.1354515 C437.75861,58.1354515 433.792565,57.312709 430.692061,55.6913043 C428.477415,54.5113712 426.652871,52.9140468 425.26313,50.9314381 C423.865262,48.9408027 423.154137,46.9622074 423.154137,45.0518395 C423.154137,43.8598662 423.617384,42.8284281 424.527624,41.9816054 C425.4338,41.138796 426.587854,40.7173913 427.969468,40.7173913 C429.103204,40.7173913 430.082525,41.0505017 430.874921,41.7086957 C431.630745,42.3468227 432.280917,43.2899666 432.809181,44.5020067 C433.390271,45.8264214 434.028252,46.9381271 434.698741,47.8130435 C435.344849,48.6638796 436.27947,49.3742475 437.461969,49.9280936 C438.656659,50.4859532 440.269896,50.770903 442.252919,50.770903 C444.975511,50.770903 447.210475,50.19699 448.892793,49.061204 C450.534475,47.9575251 451.330935,46.6250836 451.330935,44.9996656 C451.330935,43.7153846 450.916451,42.7080268 450.059038,41.9093645 C449.160989,41.0826087 447.97849,40.4404682 446.539986,39.9949833 C445.044592,39.5374582 443.008743,39.035786 440.493393,38.5140468 C437.071866,37.7916388 434.166413,36.9327759 431.854242,35.9655518 C429.489244,34.9702341 427.583429,33.5896321 426.189624,31.867893 C424.775502,30.1180602 424.060313,27.9267559 424.060313,25.3421405 C424.060313,22.8859532 424.812074,20.6665552 426.295277,18.7561873 C427.770353,16.8578595 429.924046,15.3809365 432.695401,14.3735786 C435.434247,13.3742475 438.685104,12.8645485 442.366699,12.8645485 C445.312787,12.8645485 447.897218,13.2056856 450.059038,13.8638796 C452.233048,14.5301003 454.061655,15.4331104 455.504222,16.5448161 C456.950853,17.6645485 458.035827,18.8565217 458.710379,20.1006689 C459.393059,21.3568562 459.738463,22.6050167 459.738463,23.8170569 C459.738463,24.9809365 459.287406,26.0364548 458.385294,26.9595318 C457.483181,27.8866221 456.345381,28.3561873 455.000339,28.3561873 C453.781268,28.3561873 452.826329,28.0591973 452.163967,27.4852843 C451.546305,26.9394649 450.908324,26.1006689 450.197199,24.8926421 C449.376358,23.351505 448.380783,22.1354515 447.23892,21.280602 C446.129565,20.4458194 444.276577,20.0244147 441.732782,20.0244147 C439.371847,20.0244147 437.449778,20.4939799 436.019402,21.4170569 C434.645915,22.3080268 433.979489,23.3274247 433.979489,24.5394649 C433.979489,25.2819398 434.194858,25.9 434.637788,26.4297659 C435.105098,27.0036789 435.76746,27.493311 436.600492,27.906689 C437.466033,28.3401338 438.364082,28.6812709 439.254004,28.9220736 C440.168307,29.1749164 441.7084,29.5441472 443.81333,30.0257525 C446.483096,30.5956522 448.937492,31.2257525 451.103375,31.9120401 C453.297703,32.6103679 455.195391,33.4571906 456.743611,34.4565217 C458.320277,35.4719064 459.571856,36.7722408 460.457715,38.3294314 C461.347637,39.8946488 461.798693,41.8250836 461.798693,44.0685619 C461.798693,46.7454849 461.022551,49.1936455 459.490585,51.3287625 L459.490585,51.3287625 Z" id="skype"></path>
                </g>
            </g>
        </g>
    </g>
</svg>