<?xml version="1.0" encoding="UTF-8"?>
<svg width="61px" height="53px" viewBox="0 0 61 53" version="1.1" xmlns="http://www.w3.org/2000/svg" xmlns:xlink="http://www.w3.org/1999/xlink">
    <!-- Generator: Sketch 52.4 (67378) - http://www.bohemiancoding.com/sketch -->
    <title>twitter</title>
    <desc>Created with Sketch.</desc>
    <g id="Landing" stroke="none" stroke-width="1" fill="none" fill-rule="evenodd">
        <g id="Desktop-HD" transform="translate(-272.000000, -2857.000000)" fill="#000000">
            <g id="Contact" transform="translate(-15.000000, 2610.000000)">
                <g id="Group" transform="translate(144.000000, 238.000000)">
                    <path d="M196.335915,17.7473027 C198.898706,16.1272847 200.865169,13.5585062 201.788057,10.4984722 C199.388547,12.0022389 196.737016,13.089751 193.908008,13.6785075 C191.65048,11.1284792 188.423919,9.53846154 184.85305,9.53846154 C178.002376,9.53846154 172.450845,15.4072767 172.450845,22.6448572 C172.450845,23.6723686 172.553783,24.6736297 172.766757,25.6298903 C162.458801,25.0823842 153.318653,19.8698263 147.195641,11.9347382 C146.12722,13.8772597 145.516694,16.1272847 145.516694,18.5273114 C145.516694,23.0723619 147.70678,27.0849065 151.036278,29.4399327 C149.002373,29.3724319 147.089154,28.7761753 145.413756,27.8011645 L145.413756,27.9624162 C145.413756,34.3149868 149.687441,39.6137957 155.370305,40.813809 C154.326731,41.1213125 153.233463,41.2750642 152.0976,41.2750642 C151.298946,41.2750642 150.518041,41.1963133 149.765531,41.0425616 C151.341541,46.2476194 155.924039,50.0426616 161.354884,50.1439127 C157.106046,53.6614518 151.756841,55.753975 145.946192,55.753975 C144.945213,55.753975 143.954882,55.6977244 142.985849,55.573973 C148.477037,59.2902643 154.9976,61.4615385 162.004455,61.4615385 C184.828203,61.4615385 197.301398,41.4888165 197.301398,24.1673741 C197.301398,23.5973677 197.294299,23.0311115 197.269452,22.4723552 C199.69381,20.6235847 201.802256,18.313559 203.459906,15.6847798 C201.234324,16.7272914 198.841913,17.4322992 196.335915,17.7473027 Z" id="twitter"></path>
                </g>
            </g>
        </g>
    </g>
</svg>